<svg width="225" height="24" viewBox="0 0 225 24" fill="none" xmlns="http://www.w3.org/2000/svg">
<path d="M29.1541 0.373047C27.8035 0.373047 26.7168 1.45973 26.7168 2.77926V21.0509C26.7168 22.3394 27.8035 23.4572 29.1541 23.4572C30.5046 23.4572 31.5292 22.3394 31.5292 21.0509V2.77926C31.5292 1.45973 30.4736 0.373047 29.1541 0.373047Z" fill="#202020"/>
<path d="M48.5123 18.9863H40.8124V2.77926C40.8124 1.45973 39.7568 0.373047 38.4373 0.373047C37.1177 0.373047 36 1.45973 36 2.77926V20.6318C36 22.2929 36.9159 23.2088 38.5459 23.2088H48.5123C49.6611 23.2088 50.608 22.2618 50.608 21.082C50.608 19.9022 49.6611 18.9863 48.5123 18.9863Z" fill="#202020"/>
<path d="M71.3335 9.515C68.7254 8.90956 66.8315 8.42833 66.8315 6.90699C66.8315 5.5564 67.9803 4.60945 70.4952 4.60945C72.0941 4.60945 73.8794 5.09067 75.6181 6.06868C75.9285 6.27049 76.3322 6.41021 76.7668 6.41021C77.9467 6.41021 78.9712 5.38565 78.9712 4.17478C78.9712 3.36754 78.49 2.62239 77.8535 2.28086C75.6802 1.02342 73.4137 0.417969 70.8367 0.417969C65.1705 0.417969 61.926 3.47618 61.926 7.23298C61.926 12.2783 66.6763 13.3029 70.371 14.1411C72.979 14.7466 74.9505 15.321 74.9505 17.0286C74.9505 18.3171 73.662 19.5745 71.023 19.5745C68.7565 19.5745 66.8936 18.8604 65.3257 17.7737C64.9531 17.5098 64.5184 17.3701 64.0372 17.3701C62.8108 17.3701 61.8018 18.3947 61.8018 19.6366C61.8018 20.4128 62.2054 21.0959 62.8263 21.4995C64.86 22.9277 67.468 23.766 70.7901 23.766C76.891 23.766 79.8406 20.6457 79.8406 16.5163C79.8406 11.5021 75.0903 10.3844 71.3645 9.53054L71.3335 9.515Z" fill="#202020"/>
<path d="M99.7406 2.87287C99.7406 1.69305 98.7625 0.746094 97.5983 0.746094H83.3318C82.183 0.746094 81.1895 1.69305 81.1895 2.87287C81.1895 4.05269 82.1675 4.96861 83.3318 4.96861H88.0355V21.1756C88.0355 22.4641 89.1222 23.5818 90.4728 23.5818C91.8234 23.5818 92.879 22.4641 92.879 21.1756V4.96861H97.5827C98.7315 4.96861 99.725 4.02164 99.725 2.87287H99.7406Z" fill="#202020"/>
<path d="M112.827 3.21278C112.222 1.61382 110.654 0.496094 108.869 0.496094C107.083 0.496094 105.515 1.61382 104.91 3.21278L98.2967 20.2891C98.2346 20.522 98.126 20.8325 98.126 21.1429C98.126 22.4935 99.2127 23.5802 100.563 23.5802C101.619 23.5802 102.566 22.8971 102.861 21.9502L103.777 19.3111H113.945L114.861 21.9502C115.171 22.8971 116.087 23.5802 117.127 23.5802C118.478 23.5802 119.596 22.4935 119.596 21.1429C119.596 20.8325 119.487 20.5375 119.394 20.2891L112.812 3.21278H112.827ZM105.267 15.1352L108.853 4.90489L112.439 15.1352H105.251H105.267Z" fill="#202020"/>
<path d="M125.047 0.513672C123.696 0.513672 122.609 1.60033 122.609 2.91986V21.1916C122.609 22.48 123.696 23.5978 125.047 23.5978C126.397 23.5978 127.422 22.48 127.422 21.1916V2.91986C127.422 1.60033 126.366 0.513672 125.047 0.513672Z" fill="#202020"/>
<path d="M149.713 0.513672C148.362 0.513672 147.307 1.60033 147.307 2.91986V15.3856L137.62 1.83319C137.046 1.02595 136.099 0.513672 135.043 0.513672C133.289 0.513672 131.892 1.94187 131.892 3.66503V21.1916C131.892 22.48 132.978 23.5978 134.329 23.5978C135.679 23.5978 136.704 22.48 136.704 21.1916V8.18248L146.764 22.3558C147.307 23.132 148.192 23.6133 149.17 23.6133C150.8 23.6133 152.119 22.2938 152.119 20.6637V2.9354C152.119 1.61587 151.033 0.529187 149.713 0.529187V0.513672Z" fill="#202020"/>
<path d="M177.02 19.1093H169.32V2.90231C169.32 1.58277 168.265 0.496094 166.945 0.496094C165.626 0.496094 164.508 1.58277 164.508 2.90231V20.7548C164.508 22.4159 165.424 23.3318 167.054 23.3318H177.02C178.169 23.3318 179.116 22.3848 179.116 21.205C179.116 20.0252 178.169 19.1093 177.02 19.1093Z" fill="#202020"/>
<path d="M195.958 3.21278C195.353 1.61382 193.785 0.496094 191.999 0.496094C190.214 0.496094 188.646 1.61382 188.041 3.21278L181.428 20.2891C181.366 20.522 181.257 20.8325 181.257 21.1429C181.257 22.4935 182.344 23.5802 183.694 23.5802C184.75 23.5802 185.697 22.8971 186.007 21.9502L186.923 19.3111H197.091L198.007 21.9502C198.318 22.8971 199.234 23.5802 200.274 23.5802C201.624 23.5802 202.742 22.4935 202.742 21.1429C202.742 20.8325 202.649 20.5375 202.54 20.2891L195.958 3.21278ZM188.398 15.1352L191.984 4.90489L195.57 15.1352H188.382H188.398Z" fill="#202020"/>
<path d="M219.742 11.6905C221.884 11.2558 223.638 9.34637 223.638 6.50549C223.638 3.49384 221.434 0.746094 217.134 0.746094H207.788C206.158 0.746094 205.242 1.66201 205.242 3.29202V20.772C205.242 22.433 206.158 23.3489 207.788 23.3489H217.506C221.806 23.3489 224.088 20.6323 224.088 17.2481C224.088 14.4072 222.163 12.0631 219.757 11.6905H219.742ZM210.055 4.84441H216.093C217.723 4.84441 218.732 5.93108 218.732 7.31271C218.732 8.69435 217.708 9.82761 216.093 9.82761H210.055V4.84441ZM216.249 19.2506H210.055V13.9259H216.249C218.143 13.9259 219.167 15.1523 219.167 16.565C219.167 18.195 218.08 19.2351 216.249 19.2351V19.2506Z" fill="#202020"/>
<path d="M12 0C5.37128 0 0 5.37128 0 12C0 18.6287 5.37128 24 12 24C18.6287 24 24 18.6287 24 12C24 5.37128 18.6287 0 12 0Z" fill="#202020"/>
</svg>
