<?xml version="1.0" encoding="UTF-8"?>
<svg id="Layer_1" data-name="Layer 1" xmlns="http://www.w3.org/2000/svg" version="1.1" viewBox="0 0 225 26">
  <defs>
    <style>
      .cls-1 {
        fill: #010101;
        stroke-width: 0px;
      }
    </style>
  </defs>
  <path class="cls-1" d="M31.8.2c-1.5,0-2.7,1.2-2.7,2.6v19.9c0,1.4,1.2,2.6,2.7,2.6s2.6-1.2,2.6-2.6V2.8c0-1.4-1.1-2.6-2.6-2.6Z"/>
  <path class="cls-1" d="M51.8,20.4h-8.4V2.8c0-1.4-1.1-2.6-2.6-2.6s-2.7,1.2-2.7,2.6v19.4c0,1.8,1,2.8,2.8,2.8h10.8c1.3,0,2.3-1,2.3-2.3s-1-2.3-2.3-2.3Z"/>
  <path class="cls-1" d="M67.5,10.1c-2.8-.7-4.9-1.2-4.9-2.8s1.3-2.5,4-2.5,3.7.5,5.6,1.6c.3.2.8.4,1.3.4,1.3,0,2.4-1.1,2.4-2.4s-.5-1.7-1.2-2.1c-2.4-1.4-4.8-2-7.6-2-6.2,0-9.7,3.3-9.7,7.4s5.2,6.6,9.2,7.5c2.8.7,5,1.3,5,3.1s-1.4,2.8-4.3,2.8-4.5-.8-6.2-2c-.4-.3-.9-.4-1.4-.4-1.3,0-2.4,1.1-2.4,2.5s.4,1.6,1.1,2c2.2,1.5,5.1,2.5,8.7,2.5,6.6,0,9.8-3.4,9.8-7.9s-5.2-6.7-9.2-7.6Z"/>
  <path class="cls-1" d="M98.9,2.9c0-1.3-1.1-2.3-2.3-2.3h-15.5c-1.3,0-2.3,1-2.3,2.3s1.1,2.3,2.3,2.3h5.1v17.6c0,1.4,1.2,2.6,2.7,2.6s2.6-1.2,2.6-2.6V5.2h5.1c1.3,0,2.3-1,2.3-2.3Z"/>
  <path class="cls-1" d="M113.6,3.3c-.7-1.7-2.4-3-4.3-3s-3.7,1.2-4.3,3l-7.2,18.6c0,.3-.2.6-.2.9,0,1.5,1.2,2.7,2.7,2.7s2.2-.7,2.5-1.8l1-2.9h11.1l1,2.9c.3,1,1.3,1.8,2.5,1.8s2.7-1.2,2.7-2.7-.1-.7-.2-.9l-7.2-18.6ZM105.4,16.3l3.9-11.1,3.9,11.1h-7.8Z"/>
  <path class="cls-1" d="M126.9.3c-1.5,0-2.7,1.2-2.7,2.6v19.9c0,1.4,1.2,2.6,2.7,2.6s2.6-1.2,2.6-2.6V3c0-1.4-1.1-2.6-2.6-2.6Z"/>
  <path class="cls-1" d="M153.3.3c-1.5,0-2.6,1.2-2.6,2.6v13.6l-10.6-14.8c-.6-.9-1.7-1.4-2.8-1.4-1.9,0-3.4,1.5-3.4,3.4v19.1c0,1.4,1.2,2.6,2.7,2.6s2.6-1.2,2.6-2.6v-14.2l11,15.4c.6.8,1.5,1.4,2.6,1.4,1.8,0,3.2-1.4,3.2-3.2V3c0-1.4-1.2-2.6-2.6-2.6Z"/>
  <path class="cls-1" d="M173.7,20.6h-8.4V3c0-1.4-1.1-2.6-2.6-2.6s-2.7,1.2-2.7,2.6v19.4c0,1.8,1,2.8,2.8,2.8h10.8c1.3,0,2.3-1,2.3-2.3s-1-2.3-2.3-2.3Z"/>
  <path class="cls-1" d="M194.6,3.3c-.7-1.7-2.4-3-4.3-3s-3.6,1.2-4.3,3l-7.2,18.6c0,.3-.2.6-.2.9,0,1.5,1.2,2.7,2.7,2.7s2.2-.7,2.5-1.8l1-2.9h11.1l1,2.9c.3,1,1.3,1.8,2.5,1.8s2.7-1.2,2.7-2.7-.1-.7-.2-.9l-7.2-18.6ZM186.4,16.3l3.9-11.1,3.9,11.1h-7.8Z"/>
  <path class="cls-1" d="M220.2,12.5c2.3-.5,4.2-2.5,4.2-5.6s-2.4-6.3-7.1-6.3h-10.2c-1.8,0-2.8,1-2.8,2.8v19c0,1.8,1,2.8,2.8,2.8h10.6c4.7,0,7.2-3,7.2-6.6s-2.1-5.6-4.7-6ZM209.7,5.1h6.6c1.8,0,2.9,1.2,2.9,2.7s-1.1,2.7-2.9,2.7h-6.6v-5.4ZM216.4,20.7h-6.7v-5.8h6.7c2.1,0,3.2,1.3,3.2,2.9s-1.2,2.9-3.2,2.9Z"/>
  <path class="cls-1" d="M12.7.2C5.7.2,0,5.9,0,12.8s5.7,12.7,12.7,12.7,12.7-5.7,12.7-12.7S19.7.2,12.7.2ZM12.7,20.8c-4.5,0-8.1-3.6-8.1-8.1s3.6-8.1,8.1-8.1,8.1,3.6,8.1,8.1-3.6,8.1-8.1,8.1Z"/>
</svg>